<svg xmlns="http://www.w3.org/2000/svg" width="720" height="480" viewBox="0 0 720 480">
<defs>
<marker id="tri" viewBox="0 0 10 10" refX="8" refY="5" markerWidth="6" markerHeight="6" orient="auto-start-reverse"><path d="M0 0L10 5L0 10z" fill="#1e1e1e"/></marker>
<marker id="tris" viewBox="0 0 10 10" refX="8" refY="5" markerWidth="6" markerHeight="6" orient="auto-start-reverse"><path d="M0 0L10 5L0 10z" fill="#1e1e1e"/></marker>
</defs>
<rect width="100%" height="100%" fill="#ffffff"/>
<path d="M39.6 29.1 L39.6 90.5 L53.5 77.4 L63.1 98.9 L71.9 94.7 L61.9 73.6 L80.4 73.6 L39.6 29.1 Z" fill="#ffffff" stroke="#1e1e1e" stroke-width="2" stroke-linejoin="round" stroke-linecap="round"/>
<text x="60" y="14" font-family="sans-serif" font-size="9" fill="#666" text-anchor="middle">Pointer (Arrow)</text>
<path d="M171.1 27.0 L174.1 28.5 L175.7 32.7 L176.0 51.9 L179.4 51.2 L181.7 48.5 L184.7 48.1 L187.4 50.4 L188.9 48.9 L191.5 48.9 L193.8 51.2 L195.3 50.4 L197.6 51.5 L199.4 54.2 L200.6 59.5 L200.2 82.1 L197.6 93.4 L192.6 99.5 L175.7 101.0 L167.7 97.6 L165.8 87.4 L162.1 74.9 L159.4 68.9 L160.6 64.8 L165.1 65.5 L166.6 60.6 L167.7 52.3 L167.7 33.8 L169.2 28.9 L171.1 27.0 Z" fill="#ffffff" stroke="#1e1e1e" stroke-width="2" stroke-linejoin="round" stroke-linecap="round"/>
<text x="180" y="14" font-family="sans-serif" font-size="9" fill="#666" text-anchor="middle">Hand pointer (Finger)</text>
<path d="M288.9 27.0 L311.1 27.0" fill="none" stroke="#1e1e1e" stroke-width="2" stroke-linejoin="round" stroke-linecap="round"/>
<path d="M288.9 101.0 L311.1 101.0" fill="none" stroke="#1e1e1e" stroke-width="2" stroke-linejoin="round" stroke-linecap="round"/>
<path d="M300.0 27.0 L300.0 101.0" fill="none" stroke="#1e1e1e" stroke-width="2" stroke-linejoin="round" stroke-linecap="round"/>
<text x="300" y="14" font-family="sans-serif" font-size="9" fill="#666" text-anchor="middle">Text (I-beam)</text>
<path d="M393.1 64.0 L412.3 64.0" fill="none" stroke="#1e1e1e" stroke-width="2" stroke-linejoin="round" stroke-linecap="round"/>
<path d="M427.7 64.0 L446.9 64.0" fill="none" stroke="#1e1e1e" stroke-width="2" stroke-linejoin="round" stroke-linecap="round"/>
<path d="M420.0 37.1 L420.0 56.3" fill="none" stroke="#1e1e1e" stroke-width="2" stroke-linejoin="round" stroke-linecap="round"/>
<path d="M420.0 71.7 L420.0 90.9" fill="none" stroke="#1e1e1e" stroke-width="2" stroke-linejoin="round" stroke-linecap="round"/>
<text x="420" y="14" font-family="sans-serif" font-size="9" fill="#666" text-anchor="middle">Crosshair</text>
<path d="M540.0 27.0 L540.0 101.0" fill="none" stroke="#1e1e1e" stroke-width="2.5" stroke-linejoin="round" stroke-linecap="round" marker-end="url(#tri)" marker-start="url(#tris)"/>
<path d="M514.1 64.0 L565.9 64.0" fill="none" stroke="#1e1e1e" stroke-width="2.5" stroke-linejoin="round" stroke-linecap="round" marker-end="url(#tri)" marker-start="url(#tris)"/>
<text x="540" y="14" font-family="sans-serif" font-size="9" fill="#666" text-anchor="middle">Move (4-way)</text>
<path d="M660.0 27.0 L660.0 101.0" fill="none" stroke="#1e1e1e" stroke-width="2.5" stroke-linejoin="round" stroke-linecap="round" marker-end="url(#tri)" marker-start="url(#tris)"/>
<text x="660" y="14" font-family="sans-serif" font-size="9" fill="#666" text-anchor="middle">Resize ↕ (NS)</text>
<path d="M21.6 184.0 L98.4 184.0" fill="none" stroke="#1e1e1e" stroke-width="2.5" stroke-linejoin="round" stroke-linecap="round" marker-end="url(#tri)" marker-start="url(#tris)"/>
<text x="60" y="134" font-family="sans-serif" font-size="9" fill="#666" text-anchor="middle">Resize ↔ (EW)</text>
<path d="M151.2 155.2 L208.8 212.8" fill="none" stroke="#1e1e1e" stroke-width="2.5" stroke-linejoin="round" stroke-linecap="round" marker-end="url(#tri)" marker-start="url(#tris)"/>
<text x="180" y="134" font-family="sans-serif" font-size="9" fill="#666" text-anchor="middle">Resize ⤡ (NWSE)</text>
<path d="M271.2 212.8 L328.8 155.2" fill="none" stroke="#1e1e1e" stroke-width="2.5" stroke-linejoin="round" stroke-linecap="round" marker-end="url(#tri)" marker-start="url(#tris)"/>
<text x="300" y="134" font-family="sans-serif" font-size="9" fill="#666" text-anchor="middle">Resize ⤢ (NESW)</text>
<path d="M406.2 170.0 L406.9 165.8 L410.4 163.8 L413.5 165.8 L414.6 165.4 L416.2 163.1 L419.2 162.7 L420.8 165.0 L421.9 164.6 L423.5 162.7 L426.5 162.7 L428.1 165.0 L429.2 165.0 L430.8 163.5 L433.8 163.8 L436.1 166.5 L437.7 171.9 L437.7 190.7 L434.6 201.1 L427.3 205.3 L413.9 204.5 L406.9 198.8 L404.6 188.8 L402.3 182.3 L403.1 177.3 L406.6 176.9 L408.5 179.2 L407.3 173.8 L406.2 170.0 Z" fill="#ffffff" stroke="#1e1e1e" stroke-width="2" stroke-linejoin="round" stroke-linecap="round"/>
<text x="420" y="134" font-family="sans-serif" font-size="9" fill="#666" text-anchor="middle">Grabbing (closed hand)</text>
<path d="M531.2 171.7 L531.6 158.7 L533.1 156.4 L535.4 156.4 L536.9 158.7 L536.9 169.8 L538.5 168.3 L538.8 154.4 L540.4 152.1 L542.7 152.1 L544.2 154.4 L544.6 168.3 L546.1 169.4 L546.5 155.6 L548.1 153.3 L550.4 153.3 L551.9 155.6 L552.3 170.6 L553.8 171.3 L554.6 161.3 L556.1 159.0 L558.4 159.4 L560.0 162.1 L560.4 175.6 L560.0 198.6 L556.9 210.5 L548.1 215.9 L534.2 214.3 L528.1 207.0 L525.4 197.8 L521.2 190.9 L519.6 186.3 L522.3 183.2 L526.6 185.2 L528.9 181.3 L529.6 173.2 L531.2 171.7 Z" fill="#ffffff" stroke="#1e1e1e" stroke-width="2" stroke-linejoin="round" stroke-linecap="round"/>
<text x="540" y="134" font-family="sans-serif" font-size="9" fill="#666" text-anchor="middle">Grab (open hand)</text>
<ellipse cx="660.0" cy="184.0" rx="26.9" ry="26.9" fill="none" stroke="#e03131" stroke-width="2.5"/>
<path d="M642.3 166.3 L677.7 201.7" fill="none" stroke="#e03131" stroke-width="2.5" stroke-linejoin="round" stroke-linecap="round"/>
<text x="660" y="134" font-family="sans-serif" font-size="9" fill="#666" text-anchor="middle">Not allowed</text>
<ellipse cx="52.3" cy="296.3" rx="23.0" ry="23.0" fill="#ffffff" stroke="#1e1e1e" stroke-width="2.5"/>
<path d="M68.4 312.4 L90.7 334.7" fill="none" stroke="#1e1e1e" stroke-width="3" stroke-linejoin="round" stroke-linecap="round"/>
<path d="M52.3 284.0 L52.3 308.6" fill="none" stroke="#1e1e1e" stroke-width="2" stroke-linejoin="round" stroke-linecap="round"/>
<path d="M40.0 296.3 L64.6 296.3" fill="none" stroke="#1e1e1e" stroke-width="2" stroke-linejoin="round" stroke-linecap="round"/>
<text x="60" y="254" font-family="sans-serif" font-size="9" fill="#666" text-anchor="middle">Zoom in</text>
<ellipse cx="172.3" cy="296.3" rx="23.0" ry="23.0" fill="#ffffff" stroke="#1e1e1e" stroke-width="2.5"/>
<path d="M188.4 312.4 L210.7 334.7" fill="none" stroke="#1e1e1e" stroke-width="3" stroke-linejoin="round" stroke-linecap="round"/>
<path d="M160.0 296.3 L184.6 296.3" fill="none" stroke="#1e1e1e" stroke-width="2" stroke-linejoin="round" stroke-linecap="round"/>
<text x="180" y="254" font-family="sans-serif" font-size="9" fill="#666" text-anchor="middle">Zoom out</text>
<ellipse cx="300.0" cy="297.1" rx="6.3" ry="6.3" fill="#1971c2" stroke="#1971c2" stroke-width="1"/>
<ellipse cx="300.0" cy="297.1" rx="18.6" ry="18.6" fill="none" stroke="#1971c2" stroke-width="2"/>
<path d="M300.0 272.7 L300.0 267.0" fill="none" stroke="#1971c2" stroke-width="2" stroke-linejoin="round" stroke-linecap="round"/>
<path d="M300.0 327.2 L300.0 332.9" fill="none" stroke="#1971c2" stroke-width="2" stroke-linejoin="round" stroke-linecap="round"/>
<path d="M275.7 297.1 L269.9 297.1" fill="none" stroke="#1971c2" stroke-width="2" stroke-linejoin="round" stroke-linecap="round"/>
<path d="M324.3 297.1 L330.1 297.1" fill="none" stroke="#1971c2" stroke-width="2" stroke-linejoin="round" stroke-linecap="round"/>
<text x="281.4" y="329.1" font-family="Comic Sans MS, cursive" font-size="19.1" fill="#1e1e1e" text-anchor="start">click</text>
<text x="300" y="254" font-family="sans-serif" font-size="9" fill="#666" text-anchor="middle">Click / Tap</text>
<ellipse cx="419.1" cy="291.4" rx="6.0" ry="6.0" fill="#1971c2" stroke="#1971c2" stroke-width="1"/>
<ellipse cx="419.1" cy="291.4" rx="16.2" ry="16.2" fill="none" stroke="#1971c2" stroke-width="2"/>
<ellipse cx="419.1" cy="291.4" rx="24.4" ry="24.4" fill="none" stroke="#1971c2" stroke-width="1.5"/>
<text x="400.1" y="330.4" font-family="Comic Sans MS, cursive" font-size="18.0" fill="#1e1e1e" text-anchor="start">double</text>
<text x="420" y="254" font-family="sans-serif" font-size="9" fill="#666" text-anchor="middle">Double click</text>
<ellipse cx="534.4" cy="288.3" rx="6.7" ry="6.7" fill="#2f9e44" stroke="#2f9e44" stroke-width="1"/>
<ellipse cx="534.4" cy="288.3" rx="21.3" ry="21.3" fill="none" stroke="#2f9e44" stroke-width="2.5"/>
<text x="516.2" y="327.7" font-family="Comic Sans MS, cursive" font-size="20.3" fill="#1e1e1e" text-anchor="start">hold</text>
<text x="540" y="254" font-family="sans-serif" font-size="9" fill="#666" text-anchor="middle">Long press / Hold</text>
<ellipse cx="631.8" cy="276.5" rx="7.7" ry="7.7" fill="#1971c2" stroke="#1971c2" stroke-width="1"/>
<path d="M631.8 276.5 L662.6 276.5 L693.3 299.5" fill="none" stroke="#1971c2" stroke-width="2.5" stroke-linejoin="round" stroke-linecap="round" stroke-dasharray="6 5" marker-end="url(#tri)"/>
<text x="631.8" y="319.2" font-family="Comic Sans MS, cursive" font-size="25.6" fill="#1e1e1e" text-anchor="start">drag</text>
<text x="660" y="254" font-family="sans-serif" font-size="9" fill="#666" text-anchor="middle">Drag</text>
<ellipse cx="51.1" cy="402.9" rx="15.9" ry="15.9" fill="none" stroke="#1971c2" stroke-width="2"/>
<path d="M51.1 402.9 L51.1 454.0 L62.6 443.1 L70.5 461.0 L77.9 457.5 L69.6 439.9 L84.9 439.9 L51.1 402.9 Z" fill="#ffffff" stroke="#1e1e1e" stroke-width="2" stroke-linejoin="round" stroke-linecap="round"/>
<text x="60" y="374" font-family="sans-serif" font-size="9" fill="#666" text-anchor="middle">Pointer + click</text>
</svg>