<svg xmlns="http://www.w3.org/2000/svg" width="720" height="480" viewBox="0 0 720 480">
<defs>
<marker id="tri" viewBox="0 0 10 10" refX="8" refY="5" markerWidth="6" markerHeight="6" orient="auto-start-reverse"><path d="M0 0L10 5L0 10z" fill="#1e1e1e"/></marker>
<marker id="tris" viewBox="0 0 10 10" refX="8" refY="5" markerWidth="6" markerHeight="6" orient="auto-start-reverse"><path d="M0 0L10 5L0 10z" fill="#1e1e1e"/></marker>
</defs>
<rect width="100%" height="100%" fill="#ffffff"/>
<path d="M39.6 29.1 L39.6 90.5 L53.5 77.4 L63.1 98.9 L71.9 94.7 L61.9 73.6 L80.4 73.6 L39.6 29.1 Z" fill="#ffffff" stroke="#1e1e1e" stroke-width="2" stroke-linejoin="round" stroke-linecap="round"/>
<text x="60" y="14" font-family="sans-serif" font-size="9" fill="#666" text-anchor="middle">Pointer (Arrow)</text>
<path d="M165.8 63.2 L165.8 37.4 L170.6 36.4 L175.3 37.4 L175.3 60.1" fill="none" stroke="#1e1e1e" stroke-width="2" stroke-linejoin="round" stroke-linecap="round"/>
<path d="M175.3 60.1 L175.3 53.1 L180.0 52.2 L184.7 53.1 L184.7 58.5" fill="none" stroke="#1e1e1e" stroke-width="2" stroke-linejoin="round" stroke-linecap="round"/>
<path d="M184.7 58.5 L184.7 56.3 L189.4 55.3 L194.2 56.3 L194.2 58.5" fill="none" stroke="#1e1e1e" stroke-width="2" stroke-linejoin="round" stroke-linecap="round"/>
<path d="M194.2 61.6 L194.2 58.5 L198.9 58.5 L203.6 61.6 L203.6 72.7 L200.5 85.3 L191.0 91.6 L178.4 91.6 L167.4 86.8 L162.7 79.0 L158.0 71.1 L156.4 66.4 L157.3 62.6 L160.8 63.2 L165.8 67.9" fill="none" stroke="#1e1e1e" stroke-width="2" stroke-linejoin="round" stroke-linecap="round"/>
<text x="180" y="14" font-family="sans-serif" font-size="9" fill="#666" text-anchor="middle">Hand pointer (Finger)</text>
<path d="M288.9 27.0 L311.1 27.0" fill="none" stroke="#1e1e1e" stroke-width="2" stroke-linejoin="round" stroke-linecap="round"/>
<path d="M288.9 101.0 L311.1 101.0" fill="none" stroke="#1e1e1e" stroke-width="2" stroke-linejoin="round" stroke-linecap="round"/>
<path d="M300.0 27.0 L300.0 101.0" fill="none" stroke="#1e1e1e" stroke-width="2" stroke-linejoin="round" stroke-linecap="round"/>
<text x="300" y="14" font-family="sans-serif" font-size="9" fill="#666" text-anchor="middle">Text (I-beam)</text>
<path d="M393.1 64.0 L412.3 64.0" fill="none" stroke="#1e1e1e" stroke-width="2" stroke-linejoin="round" stroke-linecap="round"/>
<path d="M427.7 64.0 L446.9 64.0" fill="none" stroke="#1e1e1e" stroke-width="2" stroke-linejoin="round" stroke-linecap="round"/>
<path d="M420.0 37.1 L420.0 56.3" fill="none" stroke="#1e1e1e" stroke-width="2" stroke-linejoin="round" stroke-linecap="round"/>
<path d="M420.0 71.7 L420.0 90.9" fill="none" stroke="#1e1e1e" stroke-width="2" stroke-linejoin="round" stroke-linecap="round"/>
<text x="420" y="14" font-family="sans-serif" font-size="9" fill="#666" text-anchor="middle">Crosshair</text>
<path d="M540.0 27.0 L540.0 101.0" fill="none" stroke="#1e1e1e" stroke-width="2.5" stroke-linejoin="round" stroke-linecap="round" marker-end="url(#tri)" marker-start="url(#tris)"/>
<path d="M514.1 64.0 L565.9 64.0" fill="none" stroke="#1e1e1e" stroke-width="2.5" stroke-linejoin="round" stroke-linecap="round" marker-end="url(#tri)" marker-start="url(#tris)"/>
<text x="540" y="14" font-family="sans-serif" font-size="9" fill="#666" text-anchor="middle">Move (4-way)</text>
<path d="M660.0 27.0 L660.0 101.0" fill="none" stroke="#1e1e1e" stroke-width="2.5" stroke-linejoin="round" stroke-linecap="round" marker-end="url(#tri)" marker-start="url(#tris)"/>
<text x="660" y="14" font-family="sans-serif" font-size="9" fill="#666" text-anchor="middle">Resize ↕ (NS)</text>
<path d="M21.6 184.0 L98.4 184.0" fill="none" stroke="#1e1e1e" stroke-width="2.5" stroke-linejoin="round" stroke-linecap="round" marker-end="url(#tri)" marker-start="url(#tris)"/>
<text x="60" y="134" font-family="sans-serif" font-size="9" fill="#666" text-anchor="middle">Resize ↔ (EW)</text>
<path d="M151.2 155.2 L208.8 212.8" fill="none" stroke="#1e1e1e" stroke-width="2.5" stroke-linejoin="round" stroke-linecap="round" marker-end="url(#tri)" marker-start="url(#tris)"/>
<text x="180" y="134" font-family="sans-serif" font-size="9" fill="#666" text-anchor="middle">Resize ⤡ (NWSE)</text>
<path d="M271.2 212.8 L328.8 155.2" fill="none" stroke="#1e1e1e" stroke-width="2.5" stroke-linejoin="round" stroke-linecap="round" marker-end="url(#tri)" marker-start="url(#tris)"/>
<text x="300" y="134" font-family="sans-serif" font-size="9" fill="#666" text-anchor="middle">Resize ⤢ (NESW)</text>
<path d="M405.8 173.8 L405.8 163.7 L410.6 162.7 L415.3 163.7 L415.3 172.2" fill="none" stroke="#1e1e1e" stroke-width="2" stroke-linejoin="round" stroke-linecap="round"/>
<path d="M415.3 172.2 L415.3 160.5 L420.0 159.6 L424.7 160.5 L424.7 172.2" fill="none" stroke="#1e1e1e" stroke-width="2" stroke-linejoin="round" stroke-linecap="round"/>
<path d="M424.7 172.2 L424.7 163.7 L429.4 162.7 L434.2 163.7 L434.2 172.2" fill="none" stroke="#1e1e1e" stroke-width="2" stroke-linejoin="round" stroke-linecap="round"/>
<path d="M434.2 172.2 L434.2 169.0 L438.9 169.0 L443.6 172.2 L443.6 189.5 L440.5 202.1 L431.0 208.4 L418.4 208.4 L407.4 203.7 L402.7 195.8 L398.0 187.9 L396.4 183.2 L397.3 179.4 L400.8 180.1 L405.8 184.8" fill="none" stroke="#1e1e1e" stroke-width="2" stroke-linejoin="round" stroke-linecap="round"/>
<text x="420" y="134" font-family="sans-serif" font-size="9" fill="#666" text-anchor="middle">Grabbing (closed hand)</text>
<path d="M525.8 184.8 L525.8 162.1 L530.6 161.2 L535.3 162.1 L535.3 181.6" fill="none" stroke="#1e1e1e" stroke-width="2" stroke-linejoin="round" stroke-linecap="round"/>
<path d="M535.3 181.6 L535.3 155.8 L540.0 154.9 L544.7 155.8 L544.7 181.6" fill="none" stroke="#1e1e1e" stroke-width="2" stroke-linejoin="round" stroke-linecap="round"/>
<path d="M544.7 181.6 L544.7 162.1 L549.4 161.2 L554.2 162.1 L554.2 181.6" fill="none" stroke="#1e1e1e" stroke-width="2" stroke-linejoin="round" stroke-linecap="round"/>
<path d="M554.2 184.8 L554.2 181.6 L558.9 181.6 L563.6 184.8 L563.6 194.2 L560.5 206.8 L551.0 213.1 L538.4 213.1 L527.4 208.4 L522.7 200.5 L518.0 192.7 L516.4 187.9 L517.3 184.2 L520.8 184.8 L525.8 189.5" fill="none" stroke="#1e1e1e" stroke-width="2" stroke-linejoin="round" stroke-linecap="round"/>
<text x="540" y="134" font-family="sans-serif" font-size="9" fill="#666" text-anchor="middle">Grab (open hand)</text>
<ellipse cx="660.0" cy="184.0" rx="26.9" ry="26.9" fill="none" stroke="#e03131" stroke-width="2.5"/>
<path d="M642.3 166.3 L677.7 201.7" fill="none" stroke="#e03131" stroke-width="2.5" stroke-linejoin="round" stroke-linecap="round"/>
<text x="660" y="134" font-family="sans-serif" font-size="9" fill="#666" text-anchor="middle">Not allowed</text>
<ellipse cx="52.3" cy="296.3" rx="23.0" ry="23.0" fill="#ffffff" stroke="#1e1e1e" stroke-width="2.5"/>
<path d="M68.4 312.4 L90.7 334.7" fill="none" stroke="#1e1e1e" stroke-width="3" stroke-linejoin="round" stroke-linecap="round"/>
<path d="M52.3 284.0 L52.3 308.6" fill="none" stroke="#1e1e1e" stroke-width="2" stroke-linejoin="round" stroke-linecap="round"/>
<path d="M40.0 296.3 L64.6 296.3" fill="none" stroke="#1e1e1e" stroke-width="2" stroke-linejoin="round" stroke-linecap="round"/>
<text x="60" y="254" font-family="sans-serif" font-size="9" fill="#666" text-anchor="middle">Zoom in</text>
<ellipse cx="172.3" cy="296.3" rx="23.0" ry="23.0" fill="#ffffff" stroke="#1e1e1e" stroke-width="2.5"/>
<path d="M188.4 312.4 L210.7 334.7" fill="none" stroke="#1e1e1e" stroke-width="3" stroke-linejoin="round" stroke-linecap="round"/>
<path d="M160.0 296.3 L184.6 296.3" fill="none" stroke="#1e1e1e" stroke-width="2" stroke-linejoin="round" stroke-linecap="round"/>
<text x="180" y="254" font-family="sans-serif" font-size="9" fill="#666" text-anchor="middle">Zoom out</text>
<ellipse cx="300.0" cy="297.1" rx="6.3" ry="6.3" fill="#1971c2" stroke="#1971c2" stroke-width="1"/>
<ellipse cx="300.0" cy="297.1" rx="18.6" ry="18.6" fill="none" stroke="#1971c2" stroke-width="2"/>
<path d="M300.0 272.7 L300.0 267.0" fill="none" stroke="#1971c2" stroke-width="2" stroke-linejoin="round" stroke-linecap="round"/>
<path d="M300.0 327.2 L300.0 332.9" fill="none" stroke="#1971c2" stroke-width="2" stroke-linejoin="round" stroke-linecap="round"/>
<path d="M275.7 297.1 L269.9 297.1" fill="none" stroke="#1971c2" stroke-width="2" stroke-linejoin="round" stroke-linecap="round"/>
<path d="M324.3 297.1 L330.1 297.1" fill="none" stroke="#1971c2" stroke-width="2" stroke-linejoin="round" stroke-linecap="round"/>
<text x="281.4" y="329.1" font-family="Comic Sans MS, cursive" font-size="19.1" fill="#1e1e1e" text-anchor="start">click</text>
<text x="300" y="254" font-family="sans-serif" font-size="9" fill="#666" text-anchor="middle">Click / Tap</text>
<ellipse cx="419.1" cy="291.4" rx="6.0" ry="6.0" fill="#1971c2" stroke="#1971c2" stroke-width="1"/>
<ellipse cx="419.1" cy="291.4" rx="16.2" ry="16.2" fill="none" stroke="#1971c2" stroke-width="2"/>
<ellipse cx="419.1" cy="291.4" rx="24.4" ry="24.4" fill="none" stroke="#1971c2" stroke-width="1.5"/>
<text x="400.1" y="330.4" font-family="Comic Sans MS, cursive" font-size="18.0" fill="#1e1e1e" text-anchor="start">double</text>
<text x="420" y="254" font-family="sans-serif" font-size="9" fill="#666" text-anchor="middle">Double click</text>
<ellipse cx="534.4" cy="288.3" rx="6.7" ry="6.7" fill="#2f9e44" stroke="#2f9e44" stroke-width="1"/>
<ellipse cx="534.4" cy="288.3" rx="21.3" ry="21.3" fill="none" stroke="#2f9e44" stroke-width="2.5"/>
<text x="516.2" y="327.7" font-family="Comic Sans MS, cursive" font-size="20.3" fill="#1e1e1e" text-anchor="start">hold</text>
<text x="540" y="254" font-family="sans-serif" font-size="9" fill="#666" text-anchor="middle">Long press / Hold</text>
<ellipse cx="631.8" cy="276.5" rx="7.7" ry="7.7" fill="#1971c2" stroke="#1971c2" stroke-width="1"/>
<path d="M631.8 276.5 L662.6 276.5 L693.3 299.5" fill="none" stroke="#1971c2" stroke-width="2.5" stroke-linejoin="round" stroke-linecap="round" stroke-dasharray="6 5" marker-end="url(#tri)"/>
<text x="631.8" y="319.2" font-family="Comic Sans MS, cursive" font-size="25.6" fill="#1e1e1e" text-anchor="start">drag</text>
<text x="660" y="254" font-family="sans-serif" font-size="9" fill="#666" text-anchor="middle">Drag</text>
<ellipse cx="51.1" cy="402.9" rx="15.9" ry="15.9" fill="none" stroke="#1971c2" stroke-width="2"/>
<path d="M51.1 402.9 L51.1 454.0 L62.6 443.1 L70.5 461.0 L77.9 457.5 L69.6 439.9 L84.9 439.9 L51.1 402.9 Z" fill="#ffffff" stroke="#1e1e1e" stroke-width="2" stroke-linejoin="round" stroke-linecap="round"/>
<text x="60" y="374" font-family="sans-serif" font-size="9" fill="#666" text-anchor="middle">Pointer + click</text>
</svg>