<svg xmlns="http://www.w3.org/2000/svg" width="720" height="480" viewBox="0 0 720 480">
<defs>
<marker id="tri" viewBox="0 0 10 10" refX="8" refY="5" markerWidth="6" markerHeight="6" orient="auto-start-reverse"><path d="M0 0L10 5L0 10z" fill="#1e1e1e"/></marker>
<marker id="tris" viewBox="0 0 10 10" refX="8" refY="5" markerWidth="6" markerHeight="6" orient="auto-start-reverse"><path d="M0 0L10 5L0 10z" fill="#1e1e1e"/></marker>
</defs>
<rect width="100%" height="100%" fill="#ffffff"/>
<path d="M39.6 29.1 L39.6 90.5 L53.5 77.4 L63.1 98.9 L71.9 94.7 L61.9 73.6 L80.4 73.6 L39.6 29.1 Z" fill="#ffffff" stroke="#1e1e1e" stroke-width="2" stroke-linejoin="round" stroke-linecap="round"/>
<text x="60" y="14" font-family="sans-serif" font-size="9" fill="#666" text-anchor="middle">Pointer (Arrow)</text>
<path d="M211.7 56.0 L211.7 60.7 L211.7 65.3 L211.7 69.9 L211.7 74.5 L211.0 79.1 L209.7 83.5 L207.6 87.6 L204.9 91.3 L201.6 94.6 L197.8 97.2 L193.7 99.2 L189.2 100.5 L184.7 101.0 L180.0 100.7 L175.6 99.7 L171.3 98.0 L167.4 95.5 L163.9 92.5 L161.1 88.8 L158.5 85.0 L156.2 81.0 L154.0 77.0 L151.9 72.8 L149.9 68.7 L148.3 64.4 L149.9 60.2 L154.1 58.7 L157.9 61.0 L160.3 65.0 L162.6 69.0 L164.9 73.0 L168.6 73.8 L169.4 69.4 L169.4 64.8 L169.4 60.1 L169.4 55.5 L169.4 50.9 L169.4 46.3 L169.4 41.7 L169.4 37.0 L169.4 32.4 L171.2 28.3 L175.4 27.0 L179.2 29.5 L180.0 33.9 L180.0 38.6 L180.0 43.2 L180.0 47.8 L180.0 52.4 L180.2 57.0 L184.0 58.3 L185.3 54.1 L185.4 49.5 L188.2 46.0 L192.7 45.9 L195.6 49.3 L195.9 53.9 L195.9 58.5 L198.8 61.3 L201.2 58.0 L201.9 53.5 L205.5 50.8 L209.8 52.0 L211.7 56.0 Z" fill="#ffffff" stroke="#1e1e1e" stroke-width="2" stroke-linejoin="round" stroke-linecap="round"/>
<text x="180" y="14" font-family="sans-serif" font-size="9" fill="#666" text-anchor="middle">Hand pointer (Finger)</text>
<path d="M288.9 27.0 L311.1 27.0" fill="none" stroke="#1e1e1e" stroke-width="2" stroke-linejoin="round" stroke-linecap="round"/>
<path d="M288.9 101.0 L311.1 101.0" fill="none" stroke="#1e1e1e" stroke-width="2" stroke-linejoin="round" stroke-linecap="round"/>
<path d="M300.0 27.0 L300.0 101.0" fill="none" stroke="#1e1e1e" stroke-width="2" stroke-linejoin="round" stroke-linecap="round"/>
<text x="300" y="14" font-family="sans-serif" font-size="9" fill="#666" text-anchor="middle">Text (I-beam)</text>
<path d="M393.1 64.0 L412.3 64.0" fill="none" stroke="#1e1e1e" stroke-width="2" stroke-linejoin="round" stroke-linecap="round"/>
<path d="M427.7 64.0 L446.9 64.0" fill="none" stroke="#1e1e1e" stroke-width="2" stroke-linejoin="round" stroke-linecap="round"/>
<path d="M420.0 37.1 L420.0 56.3" fill="none" stroke="#1e1e1e" stroke-width="2" stroke-linejoin="round" stroke-linecap="round"/>
<path d="M420.0 71.7 L420.0 90.9" fill="none" stroke="#1e1e1e" stroke-width="2" stroke-linejoin="round" stroke-linecap="round"/>
<text x="420" y="14" font-family="sans-serif" font-size="9" fill="#666" text-anchor="middle">Crosshair</text>
<path d="M540.0 27.0 L540.0 101.0" fill="none" stroke="#1e1e1e" stroke-width="2.5" stroke-linejoin="round" stroke-linecap="round" marker-end="url(#tri)" marker-start="url(#tris)"/>
<path d="M514.1 64.0 L565.9 64.0" fill="none" stroke="#1e1e1e" stroke-width="2.5" stroke-linejoin="round" stroke-linecap="round" marker-end="url(#tri)" marker-start="url(#tris)"/>
<text x="540" y="14" font-family="sans-serif" font-size="9" fill="#666" text-anchor="middle">Move (4-way)</text>
<path d="M660.0 27.0 L660.0 101.0" fill="none" stroke="#1e1e1e" stroke-width="2.5" stroke-linejoin="round" stroke-linecap="round" marker-end="url(#tri)" marker-start="url(#tris)"/>
<text x="660" y="14" font-family="sans-serif" font-size="9" fill="#666" text-anchor="middle">Resize ↕ (NS)</text>
<path d="M21.6 184.0 L98.4 184.0" fill="none" stroke="#1e1e1e" stroke-width="2.5" stroke-linejoin="round" stroke-linecap="round" marker-end="url(#tri)" marker-start="url(#tris)"/>
<text x="60" y="134" font-family="sans-serif" font-size="9" fill="#666" text-anchor="middle">Resize ↔ (EW)</text>
<path d="M151.2 155.2 L208.8 212.8" fill="none" stroke="#1e1e1e" stroke-width="2.5" stroke-linejoin="round" stroke-linecap="round" marker-end="url(#tri)" marker-start="url(#tris)"/>
<text x="180" y="134" font-family="sans-serif" font-size="9" fill="#666" text-anchor="middle">Resize ⤡ (NWSE)</text>
<path d="M271.2 212.8 L328.8 155.2" fill="none" stroke="#1e1e1e" stroke-width="2.5" stroke-linejoin="round" stroke-linecap="round" marker-end="url(#tri)" marker-start="url(#tris)"/>
<text x="300" y="134" font-family="sans-serif" font-size="9" fill="#666" text-anchor="middle">Resize ⤢ (NESW)</text>
<path d="M450.4 166.0 L450.4 169.9 L450.4 173.9 L450.4 177.8 L450.4 181.8 L450.3 185.7 L449.6 189.6 L448.5 193.3 L446.8 196.9 L444.8 200.3 L442.3 203.3 L439.4 206.0 L436.2 208.3 L432.8 210.2 L429.1 211.6 L425.3 212.5 L421.4 213.0 L417.4 212.9 L413.6 212.3 L409.8 211.2 L406.2 209.7 L402.8 207.7 L399.7 205.2 L396.9 202.4 L394.6 199.3 L392.6 195.9 L391.2 192.2 L390.1 188.4 L389.6 184.5 L389.6 180.6 L389.6 176.6 L391.2 173.1 L394.7 171.6 L398.4 172.6 L400.5 175.9 L400.6 179.8 L403.0 182.6 L406.0 180.7 L406.2 176.7 L406.2 172.8 L406.2 168.9 L406.2 164.9 L406.2 161.0 L407.2 157.3 L410.4 155.1 L414.2 155.5 L416.8 158.4 L417.2 162.3 L417.2 166.2 L419.8 168.8 L422.7 166.6 L422.8 162.7 L423.0 158.8 L425.4 155.8 L429.2 155.0 L432.5 156.9 L433.8 160.6 L433.8 164.5 L434.8 168.1 L438.4 168.1 L439.6 164.4 L441.9 161.3 L445.7 160.5 L449.1 162.4 L450.4 166.0 Z" fill="#ffffff" stroke="#1e1e1e" stroke-width="2" stroke-linejoin="round" stroke-linecap="round"/>
<text x="420" y="134" font-family="sans-serif" font-size="9" fill="#666" text-anchor="middle">Grabbing (closed hand)</text>
<path d="M571.9 162.5 L571.9 168.1 L571.9 173.8 L571.9 179.4 L571.9 185.1 L571.9 190.7 L571.7 196.3 L570.4 201.8 L568.1 207.0 L564.8 211.5 L560.7 215.4 L555.9 218.3 L550.6 220.2 L545.0 221.0 L539.4 220.6 L534.0 219.2 L528.9 216.6 L524.5 213.1 L521.0 208.8 L517.9 204.0 L515.1 199.1 L512.5 194.2 L510.0 189.1 L508.1 183.8 L510.8 179.1 L516.1 179.3 L519.5 183.7 L522.3 188.6 L525.1 193.5 L529.3 192.1 L529.4 186.5 L529.4 180.9 L529.4 175.2 L529.4 169.6 L529.4 163.9 L529.4 158.3 L531.2 153.2 L536.5 152.2 L539.9 156.3 L540.0 161.9 L540.0 167.6 L540.0 173.2 L540.0 178.9 L544.4 180.5 L545.3 175.1 L545.3 169.5 L545.3 163.8 L545.3 158.2 L545.3 152.5 L547.5 147.6 L552.8 147.0 L555.9 151.4 L556.0 157.0 L556.0 162.7 L556.0 168.3 L556.0 174.0 L556.0 179.6 L558.6 183.8 L561.3 179.7 L561.3 174.0 L561.3 168.4 L561.3 162.7 L563.8 158.0 L569.2 157.9 L571.9 162.5 Z" fill="#ffffff" stroke="#1e1e1e" stroke-width="2" stroke-linejoin="round" stroke-linecap="round"/>
<text x="540" y="134" font-family="sans-serif" font-size="9" fill="#666" text-anchor="middle">Grab (open hand)</text>
<ellipse cx="660.0" cy="184.0" rx="26.9" ry="26.9" fill="none" stroke="#e03131" stroke-width="2.5"/>
<path d="M642.3 166.3 L677.7 201.7" fill="none" stroke="#e03131" stroke-width="2.5" stroke-linejoin="round" stroke-linecap="round"/>
<text x="660" y="134" font-family="sans-serif" font-size="9" fill="#666" text-anchor="middle">Not allowed</text>
<ellipse cx="52.3" cy="296.3" rx="23.0" ry="23.0" fill="#ffffff" stroke="#1e1e1e" stroke-width="2.5"/>
<path d="M68.4 312.4 L90.7 334.7" fill="none" stroke="#1e1e1e" stroke-width="3" stroke-linejoin="round" stroke-linecap="round"/>
<path d="M52.3 284.0 L52.3 308.6" fill="none" stroke="#1e1e1e" stroke-width="2" stroke-linejoin="round" stroke-linecap="round"/>
<path d="M40.0 296.3 L64.6 296.3" fill="none" stroke="#1e1e1e" stroke-width="2" stroke-linejoin="round" stroke-linecap="round"/>
<text x="60" y="254" font-family="sans-serif" font-size="9" fill="#666" text-anchor="middle">Zoom in</text>
<ellipse cx="172.3" cy="296.3" rx="23.0" ry="23.0" fill="#ffffff" stroke="#1e1e1e" stroke-width="2.5"/>
<path d="M188.4 312.4 L210.7 334.7" fill="none" stroke="#1e1e1e" stroke-width="3" stroke-linejoin="round" stroke-linecap="round"/>
<path d="M160.0 296.3 L184.6 296.3" fill="none" stroke="#1e1e1e" stroke-width="2" stroke-linejoin="round" stroke-linecap="round"/>
<text x="180" y="254" font-family="sans-serif" font-size="9" fill="#666" text-anchor="middle">Zoom out</text>
<ellipse cx="300.0" cy="297.1" rx="6.3" ry="6.3" fill="#1971c2" stroke="#1971c2" stroke-width="1"/>
<ellipse cx="300.0" cy="297.1" rx="18.6" ry="18.6" fill="none" stroke="#1971c2" stroke-width="2"/>
<path d="M300.0 272.7 L300.0 267.0" fill="none" stroke="#1971c2" stroke-width="2" stroke-linejoin="round" stroke-linecap="round"/>
<path d="M300.0 327.2 L300.0 332.9" fill="none" stroke="#1971c2" stroke-width="2" stroke-linejoin="round" stroke-linecap="round"/>
<path d="M275.7 297.1 L269.9 297.1" fill="none" stroke="#1971c2" stroke-width="2" stroke-linejoin="round" stroke-linecap="round"/>
<path d="M324.3 297.1 L330.1 297.1" fill="none" stroke="#1971c2" stroke-width="2" stroke-linejoin="round" stroke-linecap="round"/>
<text x="281.4" y="329.1" font-family="Comic Sans MS, cursive" font-size="19.1" fill="#1e1e1e" text-anchor="start">click</text>
<text x="300" y="254" font-family="sans-serif" font-size="9" fill="#666" text-anchor="middle">Click / Tap</text>
<ellipse cx="419.1" cy="291.4" rx="6.0" ry="6.0" fill="#1971c2" stroke="#1971c2" stroke-width="1"/>
<ellipse cx="419.1" cy="291.4" rx="16.2" ry="16.2" fill="none" stroke="#1971c2" stroke-width="2"/>
<ellipse cx="419.1" cy="291.4" rx="24.4" ry="24.4" fill="none" stroke="#1971c2" stroke-width="1.5"/>
<text x="400.1" y="330.4" font-family="Comic Sans MS, cursive" font-size="18.0" fill="#1e1e1e" text-anchor="start">double</text>
<text x="420" y="254" font-family="sans-serif" font-size="9" fill="#666" text-anchor="middle">Double click</text>
<ellipse cx="534.4" cy="288.3" rx="6.7" ry="6.7" fill="#2f9e44" stroke="#2f9e44" stroke-width="1"/>
<ellipse cx="534.4" cy="288.3" rx="21.3" ry="21.3" fill="none" stroke="#2f9e44" stroke-width="2.5"/>
<text x="516.2" y="327.7" font-family="Comic Sans MS, cursive" font-size="20.3" fill="#1e1e1e" text-anchor="start">hold</text>
<text x="540" y="254" font-family="sans-serif" font-size="9" fill="#666" text-anchor="middle">Long press / Hold</text>
<ellipse cx="631.8" cy="276.5" rx="7.7" ry="7.7" fill="#1971c2" stroke="#1971c2" stroke-width="1"/>
<path d="M631.8 276.5 L662.6 276.5 L693.3 299.5" fill="none" stroke="#1971c2" stroke-width="2.5" stroke-linejoin="round" stroke-linecap="round" stroke-dasharray="6 5" marker-end="url(#tri)"/>
<text x="631.8" y="319.2" font-family="Comic Sans MS, cursive" font-size="25.6" fill="#1e1e1e" text-anchor="start">drag</text>
<text x="660" y="254" font-family="sans-serif" font-size="9" fill="#666" text-anchor="middle">Drag</text>
<ellipse cx="51.1" cy="402.9" rx="15.9" ry="15.9" fill="none" stroke="#1971c2" stroke-width="2"/>
<path d="M51.1 402.9 L51.1 454.0 L62.6 443.1 L70.5 461.0 L77.9 457.5 L69.6 439.9 L84.9 439.9 L51.1 402.9 Z" fill="#ffffff" stroke="#1e1e1e" stroke-width="2" stroke-linejoin="round" stroke-linecap="round"/>
<text x="60" y="374" font-family="sans-serif" font-size="9" fill="#666" text-anchor="middle">Pointer + click</text>
</svg>